<mxfile host="app.diagrams.net" modified="2020-10-16T06:41:49.771Z" agent="5.0 (Windows NT 10.0; WOW64) AppleWebKit/537.36 (KHTML, like Gecko) Chrome/78.0.3904.108 Safari/537.36" etag="cYpWhetscKo3_0R355Q5" version="13.8.0" type="github">
  <diagram id="eQrxvzTKeAGY-XPU5pMR" name="第 1 页">
    <mxGraphModel dx="1822" dy="741" grid="0" gridSize="10" guides="1" tooltips="1" connect="1" arrows="1" fold="1" page="0" pageScale="1" pageWidth="827" pageHeight="1169" math="0" shadow="0">
      <root>
        <mxCell id="0" />
        <mxCell id="1" parent="0" />
        <mxCell id="tHabayqNRyYTSDUrWJtf-1" value="销售主管" style="shape=umlActor;verticalLabelPosition=bottom;verticalAlign=top;html=1;" vertex="1" parent="1">
          <mxGeometry x="-32" y="66" width="30" height="60" as="geometry" />
        </mxCell>
        <mxCell id="tHabayqNRyYTSDUrWJtf-3" value="" style="html=1;points=[];perimeter=orthogonalPerimeter;fillColor=#b1ddf0;strokeColor=#10739e;" vertex="1" parent="1">
          <mxGeometry x="-22" y="149" width="10" height="872" as="geometry" />
        </mxCell>
        <mxCell id="tHabayqNRyYTSDUrWJtf-5" value="鹊桥" style="shape=umlLifeline;perimeter=lifelinePerimeter;whiteSpace=wrap;html=1;container=1;collapsible=0;recursiveResize=0;outlineConnect=0;fillColor=#b1ddf0;strokeColor=#10739e;" vertex="1" parent="1">
          <mxGeometry x="113" y="107" width="70" height="913" as="geometry" />
        </mxCell>
        <mxCell id="tHabayqNRyYTSDUrWJtf-51" value="" style="group;fillColor=#b1ddf0;strokeColor=#10739e;" vertex="1" connectable="0" parent="tHabayqNRyYTSDUrWJtf-5">
          <mxGeometry x="30" y="440" width="10" height="157" as="geometry" />
        </mxCell>
        <mxCell id="tHabayqNRyYTSDUrWJtf-66" value="" style="html=1;points=[];perimeter=orthogonalPerimeter;fillColor=#b1ddf0;strokeColor=#10739e;" vertex="1" parent="tHabayqNRyYTSDUrWJtf-5">
          <mxGeometry x="30" y="78" width="10" height="118" as="geometry" />
        </mxCell>
        <mxCell id="tHabayqNRyYTSDUrWJtf-67" value="" style="html=1;points=[];perimeter=orthogonalPerimeter;fillColor=#b1ddf0;strokeColor=#10739e;" vertex="1" parent="tHabayqNRyYTSDUrWJtf-5">
          <mxGeometry x="30" y="241" width="10" height="143" as="geometry" />
        </mxCell>
        <mxCell id="tHabayqNRyYTSDUrWJtf-68" value="" style="html=1;points=[];perimeter=orthogonalPerimeter;fillColor=#b1ddf0;strokeColor=#10739e;" vertex="1" parent="tHabayqNRyYTSDUrWJtf-5">
          <mxGeometry x="30" y="630" width="10" height="103" as="geometry" />
        </mxCell>
        <mxCell id="tHabayqNRyYTSDUrWJtf-6" value="用户中心" style="shape=umlLifeline;perimeter=lifelinePerimeter;whiteSpace=wrap;html=1;container=1;collapsible=0;recursiveResize=0;outlineConnect=0;fillColor=#b1ddf0;strokeColor=#10739e;" vertex="1" parent="1">
          <mxGeometry x="268" y="105" width="70" height="912" as="geometry" />
        </mxCell>
        <mxCell id="tHabayqNRyYTSDUrWJtf-24" value="" style="html=1;points=[];perimeter=orthogonalPerimeter;fillColor=#b1ddf0;strokeColor=#10739e;" vertex="1" parent="tHabayqNRyYTSDUrWJtf-6">
          <mxGeometry x="31" y="257.5" width="10" height="27.5" as="geometry" />
        </mxCell>
        <mxCell id="tHabayqNRyYTSDUrWJtf-45" value="" style="html=1;points=[];perimeter=orthogonalPerimeter;fillColor=#b1ddf0;strokeColor=#10739e;" vertex="1" parent="tHabayqNRyYTSDUrWJtf-6">
          <mxGeometry x="31" y="101" width="10" height="31" as="geometry" />
        </mxCell>
        <mxCell id="tHabayqNRyYTSDUrWJtf-142" value="" style="html=1;points=[];perimeter=orthogonalPerimeter;fillColor=#b1ddf0;strokeColor=#10739e;" vertex="1" parent="tHabayqNRyYTSDUrWJtf-6">
          <mxGeometry x="29" y="635" width="10" height="27.5" as="geometry" />
        </mxCell>
        <mxCell id="tHabayqNRyYTSDUrWJtf-143" value="返回用户信息" style="html=1;verticalAlign=bottom;endArrow=open;dashed=1;endSize=8;exitX=0;exitY=0.95;" edge="1" parent="tHabayqNRyYTSDUrWJtf-6" source="tHabayqNRyYTSDUrWJtf-142">
          <mxGeometry relative="1" as="geometry">
            <mxPoint x="-112" y="661.5" as="targetPoint" />
          </mxGeometry>
        </mxCell>
        <mxCell id="tHabayqNRyYTSDUrWJtf-144" value="查询用户信息" style="html=1;verticalAlign=bottom;endArrow=block;entryX=0;entryY=0;" edge="1" parent="tHabayqNRyYTSDUrWJtf-6">
          <mxGeometry relative="1" as="geometry">
            <mxPoint x="-107.99999999999977" y="635.5" as="sourcePoint" />
            <mxPoint x="29" y="635" as="targetPoint" />
          </mxGeometry>
        </mxCell>
        <mxCell id="tHabayqNRyYTSDUrWJtf-145" value="" style="html=1;points=[];perimeter=orthogonalPerimeter;fillColor=#b1ddf0;strokeColor=#10739e;" vertex="1" parent="tHabayqNRyYTSDUrWJtf-6">
          <mxGeometry x="31" y="790" width="10" height="27.5" as="geometry" />
        </mxCell>
        <mxCell id="tHabayqNRyYTSDUrWJtf-146" value="返回用户信息" style="html=1;verticalAlign=bottom;endArrow=open;dashed=1;endSize=8;exitX=0;exitY=0.95;" edge="1" parent="tHabayqNRyYTSDUrWJtf-6" source="tHabayqNRyYTSDUrWJtf-145">
          <mxGeometry relative="1" as="geometry">
            <mxPoint x="-110" y="816.5" as="targetPoint" />
          </mxGeometry>
        </mxCell>
        <mxCell id="tHabayqNRyYTSDUrWJtf-147" value="查询用户信息" style="html=1;verticalAlign=bottom;endArrow=block;entryX=0;entryY=0;" edge="1" parent="tHabayqNRyYTSDUrWJtf-6">
          <mxGeometry relative="1" as="geometry">
            <mxPoint x="-105.99999999999977" y="790.5" as="sourcePoint" />
            <mxPoint x="31" y="790" as="targetPoint" />
          </mxGeometry>
        </mxCell>
        <mxCell id="tHabayqNRyYTSDUrWJtf-7" value="es" style="shape=umlLifeline;perimeter=lifelinePerimeter;whiteSpace=wrap;html=1;container=1;collapsible=0;recursiveResize=0;outlineConnect=0;fillColor=#b1ddf0;strokeColor=#10739e;" vertex="1" parent="1">
          <mxGeometry x="542" y="105" width="70" height="920" as="geometry" />
        </mxCell>
        <mxCell id="tHabayqNRyYTSDUrWJtf-27" value="" style="html=1;points=[];perimeter=orthogonalPerimeter;fillColor=#b1ddf0;strokeColor=#10739e;" vertex="1" parent="tHabayqNRyYTSDUrWJtf-7">
          <mxGeometry x="30" y="326" width="10" height="49" as="geometry" />
        </mxCell>
        <mxCell id="tHabayqNRyYTSDUrWJtf-69" value="查看订单管理订单列表" style="html=1;verticalAlign=bottom;endArrow=block;entryX=0;entryY=0;" edge="1" target="tHabayqNRyYTSDUrWJtf-68" parent="tHabayqNRyYTSDUrWJtf-7">
          <mxGeometry relative="1" as="geometry">
            <mxPoint x="-548" y="632" as="sourcePoint" />
          </mxGeometry>
        </mxCell>
        <mxCell id="tHabayqNRyYTSDUrWJtf-38" value="" style="html=1;points=[];perimeter=orthogonalPerimeter;fillColor=#b1ddf0;strokeColor=#10739e;" vertex="1" parent="tHabayqNRyYTSDUrWJtf-7">
          <mxGeometry x="30" y="155" width="10" height="31" as="geometry" />
        </mxCell>
        <mxCell id="tHabayqNRyYTSDUrWJtf-56" value="" style="html=1;points=[];perimeter=orthogonalPerimeter;fillColor=#b1ddf0;strokeColor=#10739e;" vertex="1" parent="tHabayqNRyYTSDUrWJtf-7">
          <mxGeometry x="30" y="547" width="10" height="49" as="geometry" />
        </mxCell>
        <mxCell id="tHabayqNRyYTSDUrWJtf-72" value="" style="html=1;points=[];perimeter=orthogonalPerimeter;fillColor=#b1ddf0;strokeColor=#10739e;" vertex="1" parent="tHabayqNRyYTSDUrWJtf-7">
          <mxGeometry x="30" y="671" width="10" height="49" as="geometry" />
        </mxCell>
        <mxCell id="tHabayqNRyYTSDUrWJtf-9" value="查看已分配订单列表" style="html=1;verticalAlign=bottom;endArrow=block;entryX=0;entryY=0;" edge="1" parent="1">
          <mxGeometry relative="1" as="geometry">
            <mxPoint x="-1" y="357" as="sourcePoint" />
            <mxPoint x="143" y="358.0000000000002" as="targetPoint" />
          </mxGeometry>
        </mxCell>
        <mxCell id="tHabayqNRyYTSDUrWJtf-10" value="返回列表数据" style="html=1;verticalAlign=bottom;endArrow=open;dashed=1;endSize=8;exitX=0;exitY=0.95;" edge="1" parent="1">
          <mxGeometry relative="1" as="geometry">
            <mxPoint x="-3" y="478" as="targetPoint" />
            <mxPoint x="143" y="478.14999999999986" as="sourcePoint" />
          </mxGeometry>
        </mxCell>
        <mxCell id="tHabayqNRyYTSDUrWJtf-26" value="返回用户信息" style="html=1;verticalAlign=bottom;endArrow=open;dashed=1;endSize=8;exitX=0;exitY=0.95;" edge="1" source="tHabayqNRyYTSDUrWJtf-24" parent="1">
          <mxGeometry relative="1" as="geometry">
            <mxPoint x="158" y="389" as="targetPoint" />
          </mxGeometry>
        </mxCell>
        <mxCell id="tHabayqNRyYTSDUrWJtf-25" value="查询用户信息" style="html=1;verticalAlign=bottom;endArrow=block;entryX=0;entryY=0;" edge="1" parent="1">
          <mxGeometry relative="1" as="geometry">
            <mxPoint x="162" y="363" as="sourcePoint" />
            <mxPoint x="299" y="362.5" as="targetPoint" />
          </mxGeometry>
        </mxCell>
        <mxCell id="tHabayqNRyYTSDUrWJtf-29" value="返回订单数据" style="html=1;verticalAlign=bottom;endArrow=open;dashed=1;endSize=8;exitX=0;exitY=0.95;" edge="1" source="tHabayqNRyYTSDUrWJtf-27" parent="1">
          <mxGeometry relative="1" as="geometry">
            <mxPoint x="158" y="478" as="targetPoint" />
          </mxGeometry>
        </mxCell>
        <mxCell id="tHabayqNRyYTSDUrWJtf-28" value="查询所有已分配并且分配人为自己的订单列表" style="html=1;verticalAlign=bottom;endArrow=block;entryX=0;entryY=0;" edge="1" target="tHabayqNRyYTSDUrWJtf-27" parent="1">
          <mxGeometry relative="1" as="geometry">
            <mxPoint x="159" y="431" as="sourcePoint" />
          </mxGeometry>
        </mxCell>
        <mxCell id="tHabayqNRyYTSDUrWJtf-39" value="查看待分配订单列表" style="html=1;verticalAlign=bottom;endArrow=block;entryX=0;entryY=0;" edge="1" parent="1">
          <mxGeometry relative="1" as="geometry">
            <mxPoint x="-2" y="192" as="sourcePoint" />
            <mxPoint x="142.00000000000023" y="192.0000000000001" as="targetPoint" />
          </mxGeometry>
        </mxCell>
        <mxCell id="tHabayqNRyYTSDUrWJtf-40" value="返回列表数据" style="html=1;verticalAlign=bottom;endArrow=open;dashed=1;endSize=8;exitX=0;exitY=0.95;" edge="1" parent="1">
          <mxGeometry relative="1" as="geometry">
            <mxPoint x="-7" y="297" as="targetPoint" />
            <mxPoint x="142.00000000000023" y="296.5000000000001" as="sourcePoint" />
          </mxGeometry>
        </mxCell>
        <mxCell id="tHabayqNRyYTSDUrWJtf-43" value="返回订单数据" style="html=1;verticalAlign=bottom;endArrow=open;dashed=1;endSize=8;exitX=0;exitY=0.95;" edge="1" parent="1" source="tHabayqNRyYTSDUrWJtf-38">
          <mxGeometry relative="1" as="geometry">
            <mxPoint x="155" y="288" as="targetPoint" />
          </mxGeometry>
        </mxCell>
        <mxCell id="tHabayqNRyYTSDUrWJtf-44" value="查询所有状态为待分配的订单" style="html=1;verticalAlign=bottom;endArrow=block;entryX=0;entryY=0;" edge="1" parent="1" target="tHabayqNRyYTSDUrWJtf-38">
          <mxGeometry relative="1" as="geometry">
            <mxPoint x="159" y="259" as="sourcePoint" />
          </mxGeometry>
        </mxCell>
        <mxCell id="tHabayqNRyYTSDUrWJtf-46" value="返回用户信息" style="html=1;verticalAlign=bottom;endArrow=open;dashed=1;endSize=8;exitX=0;exitY=0.95;" edge="1" parent="1" source="tHabayqNRyYTSDUrWJtf-45">
          <mxGeometry relative="1" as="geometry">
            <mxPoint x="158" y="236.0000000000001" as="targetPoint" />
          </mxGeometry>
        </mxCell>
        <mxCell id="tHabayqNRyYTSDUrWJtf-47" value="查询用户信息" style="html=1;verticalAlign=bottom;endArrow=block;entryX=0;entryY=0;" edge="1" parent="1" target="tHabayqNRyYTSDUrWJtf-45">
          <mxGeometry relative="1" as="geometry">
            <mxPoint x="161.99999999999977" y="206.9999999999999" as="sourcePoint" />
          </mxGeometry>
        </mxCell>
        <mxCell id="tHabayqNRyYTSDUrWJtf-55" value="" style="html=1;points=[];perimeter=orthogonalPerimeter;fillColor=#b1ddf0;strokeColor=#10739e;" vertex="1" parent="1">
          <mxGeometry x="299" y="553.5" width="10" height="27.5" as="geometry" />
        </mxCell>
        <mxCell id="tHabayqNRyYTSDUrWJtf-57" value="待跟进、已完成、已退款列表" style="html=1;verticalAlign=bottom;endArrow=block;" edge="1" parent="1">
          <mxGeometry relative="1" as="geometry">
            <mxPoint x="-1" y="548" as="sourcePoint" />
            <mxPoint x="139" y="548" as="targetPoint" />
          </mxGeometry>
        </mxCell>
        <mxCell id="tHabayqNRyYTSDUrWJtf-58" value="返回列表数据" style="html=1;verticalAlign=bottom;endArrow=open;dashed=1;endSize=8;" edge="1" parent="1">
          <mxGeometry relative="1" as="geometry">
            <mxPoint x="-3" y="698" as="targetPoint" />
            <mxPoint x="135" y="698" as="sourcePoint" />
          </mxGeometry>
        </mxCell>
        <mxCell id="tHabayqNRyYTSDUrWJtf-59" value="返回用户信息" style="html=1;verticalAlign=bottom;endArrow=open;dashed=1;endSize=8;exitX=0;exitY=0.95;" edge="1" parent="1" source="tHabayqNRyYTSDUrWJtf-55">
          <mxGeometry relative="1" as="geometry">
            <mxPoint x="158" y="579.9999999999999" as="targetPoint" />
          </mxGeometry>
        </mxCell>
        <mxCell id="tHabayqNRyYTSDUrWJtf-60" value="查询用户信息" style="html=1;verticalAlign=bottom;endArrow=block;entryX=0;entryY=0;" edge="1" parent="1">
          <mxGeometry relative="1" as="geometry">
            <mxPoint x="162.00000000000023" y="554.0000000000001" as="sourcePoint" />
            <mxPoint x="298.9999999999998" y="553.5" as="targetPoint" />
          </mxGeometry>
        </mxCell>
        <mxCell id="tHabayqNRyYTSDUrWJtf-61" value="返回订单数据" style="html=1;verticalAlign=bottom;endArrow=open;dashed=1;endSize=8;exitX=0;exitY=0.95;" edge="1" parent="1" source="tHabayqNRyYTSDUrWJtf-56">
          <mxGeometry relative="1" as="geometry">
            <mxPoint x="158" y="698" as="targetPoint" />
          </mxGeometry>
        </mxCell>
        <mxCell id="tHabayqNRyYTSDUrWJtf-62" value="查询对应状态的权限用户的所有订单" style="html=1;verticalAlign=bottom;endArrow=block;entryX=0;entryY=0;" edge="1" parent="1" target="tHabayqNRyYTSDUrWJtf-56">
          <mxGeometry relative="1" as="geometry">
            <mxPoint x="158.99999999999977" y="651" as="sourcePoint" />
          </mxGeometry>
        </mxCell>
        <mxCell id="tHabayqNRyYTSDUrWJtf-63" value="" style="html=1;points=[];perimeter=orthogonalPerimeter;fillColor=#b1ddf0;strokeColor=#10739e;" vertex="1" parent="1">
          <mxGeometry x="299" y="603.5" width="10" height="27.5" as="geometry" />
        </mxCell>
        <mxCell id="tHabayqNRyYTSDUrWJtf-64" value="返回权限用户列表" style="html=1;verticalAlign=bottom;endArrow=open;dashed=1;endSize=8;exitX=0;exitY=0.95;" edge="1" parent="1" source="tHabayqNRyYTSDUrWJtf-63">
          <mxGeometry relative="1" as="geometry">
            <mxPoint x="158" y="630" as="targetPoint" />
          </mxGeometry>
        </mxCell>
        <mxCell id="tHabayqNRyYTSDUrWJtf-65" value="查询所有权限的用户" style="html=1;verticalAlign=bottom;endArrow=block;entryX=0;entryY=0;" edge="1" parent="1">
          <mxGeometry relative="1" as="geometry">
            <mxPoint x="162.00000000000023" y="604" as="sourcePoint" />
            <mxPoint x="298.9999999999998" y="603.5" as="targetPoint" />
          </mxGeometry>
        </mxCell>
        <mxCell id="tHabayqNRyYTSDUrWJtf-70" value="返回列表数据" style="html=1;verticalAlign=bottom;endArrow=open;dashed=1;endSize=8;exitX=0;exitY=0.95;" edge="1" source="tHabayqNRyYTSDUrWJtf-68" parent="1" target="tHabayqNRyYTSDUrWJtf-3">
          <mxGeometry relative="1" as="geometry">
            <mxPoint x="352" y="835" as="targetPoint" />
          </mxGeometry>
        </mxCell>
        <mxCell id="tHabayqNRyYTSDUrWJtf-73" value="返回订单数据" style="html=1;verticalAlign=bottom;endArrow=open;dashed=1;endSize=8;exitX=0;exitY=0.95;" edge="1" parent="1" source="tHabayqNRyYTSDUrWJtf-72">
          <mxGeometry relative="1" as="geometry">
            <mxPoint x="157" y="823" as="targetPoint" />
          </mxGeometry>
        </mxCell>
        <mxCell id="tHabayqNRyYTSDUrWJtf-74" value="查询所有订单" style="html=1;verticalAlign=bottom;endArrow=block;entryX=0;entryY=0;" edge="1" parent="1" target="tHabayqNRyYTSDUrWJtf-72">
          <mxGeometry relative="1" as="geometry">
            <mxPoint x="157.99999999999977" y="776" as="sourcePoint" />
          </mxGeometry>
        </mxCell>
        <mxCell id="tHabayqNRyYTSDUrWJtf-76" value="销售" style="shape=umlActor;verticalLabelPosition=bottom;verticalAlign=top;html=1;" vertex="1" parent="1">
          <mxGeometry x="761" y="415" width="30" height="60" as="geometry" />
        </mxCell>
        <mxCell id="tHabayqNRyYTSDUrWJtf-77" value="" style="html=1;points=[];perimeter=orthogonalPerimeter;fillColor=#b1ddf0;strokeColor=#10739e;" vertex="1" parent="1">
          <mxGeometry x="771" y="505" width="10" height="383" as="geometry" />
        </mxCell>
        <mxCell id="tHabayqNRyYTSDUrWJtf-78" value="鹊桥" style="shape=umlLifeline;perimeter=lifelinePerimeter;whiteSpace=wrap;html=1;container=1;collapsible=0;recursiveResize=0;outlineConnect=0;fillColor=#b1ddf0;strokeColor=#10739e;" vertex="1" parent="1">
          <mxGeometry x="903" y="475" width="70" height="418" as="geometry" />
        </mxCell>
        <mxCell id="tHabayqNRyYTSDUrWJtf-79" value="" style="group;fillColor=#b1ddf0;strokeColor=#10739e;" vertex="1" connectable="0" parent="tHabayqNRyYTSDUrWJtf-78">
          <mxGeometry x="30" y="89" width="10" height="157" as="geometry" />
        </mxCell>
        <mxCell id="tHabayqNRyYTSDUrWJtf-83" value="用户中心" style="shape=umlLifeline;perimeter=lifelinePerimeter;whiteSpace=wrap;html=1;container=1;collapsible=0;recursiveResize=0;outlineConnect=0;fillColor=#b1ddf0;strokeColor=#10739e;" vertex="1" parent="1">
          <mxGeometry x="1062" y="475" width="70" height="415" as="geometry" />
        </mxCell>
        <mxCell id="tHabayqNRyYTSDUrWJtf-86" value="es" style="shape=umlLifeline;perimeter=lifelinePerimeter;whiteSpace=wrap;html=1;container=1;collapsible=0;recursiveResize=0;outlineConnect=0;fillColor=#b1ddf0;strokeColor=#10739e;" vertex="1" parent="1">
          <mxGeometry x="1330" y="473" width="70" height="417" as="geometry" />
        </mxCell>
        <mxCell id="tHabayqNRyYTSDUrWJtf-103" value="" style="html=1;points=[];perimeter=orthogonalPerimeter;fillColor=#b1ddf0;strokeColor=#10739e;" vertex="1" parent="tHabayqNRyYTSDUrWJtf-86">
          <mxGeometry x="32" y="184" width="10" height="49" as="geometry" />
        </mxCell>
        <mxCell id="tHabayqNRyYTSDUrWJtf-102" value="" style="html=1;points=[];perimeter=orthogonalPerimeter;fillColor=#b1ddf0;strokeColor=#10739e;" vertex="1" parent="1">
          <mxGeometry x="1092" y="570.5" width="10" height="27.5" as="geometry" />
        </mxCell>
        <mxCell id="tHabayqNRyYTSDUrWJtf-104" value="待跟进、已完成、已退款列表" style="html=1;verticalAlign=bottom;endArrow=block;" edge="1" parent="1">
          <mxGeometry relative="1" as="geometry">
            <mxPoint x="792" y="565" as="sourcePoint" />
            <mxPoint x="932" y="565" as="targetPoint" />
          </mxGeometry>
        </mxCell>
        <mxCell id="tHabayqNRyYTSDUrWJtf-105" value="返回列表数据" style="html=1;verticalAlign=bottom;endArrow=open;dashed=1;endSize=8;" edge="1" parent="1">
          <mxGeometry relative="1" as="geometry">
            <mxPoint x="790" y="704" as="targetPoint" />
            <mxPoint x="928" y="704" as="sourcePoint" />
          </mxGeometry>
        </mxCell>
        <mxCell id="tHabayqNRyYTSDUrWJtf-106" value="返回用户信息" style="html=1;verticalAlign=bottom;endArrow=open;dashed=1;endSize=8;exitX=0;exitY=0.95;" edge="1" parent="1" source="tHabayqNRyYTSDUrWJtf-102">
          <mxGeometry relative="1" as="geometry">
            <mxPoint x="951" y="597" as="targetPoint" />
          </mxGeometry>
        </mxCell>
        <mxCell id="tHabayqNRyYTSDUrWJtf-107" value="查询用户信息" style="html=1;verticalAlign=bottom;endArrow=block;entryX=0;entryY=0;" edge="1" parent="1">
          <mxGeometry relative="1" as="geometry">
            <mxPoint x="955.0000000000002" y="571" as="sourcePoint" />
            <mxPoint x="1092" y="570.5" as="targetPoint" />
          </mxGeometry>
        </mxCell>
        <mxCell id="tHabayqNRyYTSDUrWJtf-108" value="返回订单数据" style="html=1;verticalAlign=bottom;endArrow=open;dashed=1;endSize=8;exitX=0;exitY=0.95;" edge="1" parent="1" source="tHabayqNRyYTSDUrWJtf-103">
          <mxGeometry relative="1" as="geometry">
            <mxPoint x="951" y="704" as="targetPoint" />
          </mxGeometry>
        </mxCell>
        <mxCell id="tHabayqNRyYTSDUrWJtf-109" value="查询对应状态并且&lt;br&gt;跟进人为自己的订单列表" style="html=1;verticalAlign=bottom;endArrow=block;entryX=0;entryY=0;" edge="1" parent="1" target="tHabayqNRyYTSDUrWJtf-103">
          <mxGeometry relative="1" as="geometry">
            <mxPoint x="951.9999999999998" y="657" as="sourcePoint" />
          </mxGeometry>
        </mxCell>
        <mxCell id="tHabayqNRyYTSDUrWJtf-117" value="mysql" style="shape=umlLifeline;perimeter=lifelinePerimeter;whiteSpace=wrap;html=1;container=1;collapsible=0;recursiveResize=0;outlineConnect=0;fillColor=#b1ddf0;strokeColor=#10739e;" vertex="1" parent="1">
          <mxGeometry x="409" y="104" width="70" height="917" as="geometry" />
        </mxCell>
        <mxCell id="tHabayqNRyYTSDUrWJtf-119" value="查看订单管理订单列表" style="html=1;verticalAlign=bottom;endArrow=block;entryX=0;entryY=0;" edge="1" parent="tHabayqNRyYTSDUrWJtf-117">
          <mxGeometry relative="1" as="geometry">
            <mxPoint x="-401" y="654" as="sourcePoint" />
          </mxGeometry>
        </mxCell>
        <mxCell id="tHabayqNRyYTSDUrWJtf-131" value="" style="html=1;points=[];perimeter=orthogonalPerimeter;fillColor=#b1ddf0;strokeColor=#10739e;" vertex="1" parent="tHabayqNRyYTSDUrWJtf-117">
          <mxGeometry x="30" y="836" width="10" height="49" as="geometry" />
        </mxCell>
        <mxCell id="tHabayqNRyYTSDUrWJtf-129" value="" style="html=1;points=[];perimeter=orthogonalPerimeter;fillColor=#b1ddf0;strokeColor=#10739e;" vertex="1" parent="1">
          <mxGeometry x="143" y="893" width="10" height="108" as="geometry" />
        </mxCell>
        <mxCell id="tHabayqNRyYTSDUrWJtf-130" value="查询订单详情页面" style="html=1;verticalAlign=bottom;endArrow=block;entryX=0;entryY=0;" edge="1" parent="1" target="tHabayqNRyYTSDUrWJtf-129">
          <mxGeometry relative="1" as="geometry">
            <mxPoint x="-6" y="893" as="sourcePoint" />
          </mxGeometry>
        </mxCell>
        <mxCell id="tHabayqNRyYTSDUrWJtf-132" value="查询订单数据" style="html=1;verticalAlign=bottom;endArrow=open;dashed=1;endSize=8;exitX=0;exitY=0.95;entryX=1.2;entryY=0.969;entryDx=0;entryDy=0;entryPerimeter=0;" edge="1" parent="1" source="tHabayqNRyYTSDUrWJtf-129" target="tHabayqNRyYTSDUrWJtf-3">
          <mxGeometry relative="1" as="geometry">
            <mxPoint x="-12" y="969" as="targetPoint" />
          </mxGeometry>
        </mxCell>
        <mxCell id="tHabayqNRyYTSDUrWJtf-133" value="返回订单数据" style="html=1;verticalAlign=bottom;endArrow=open;dashed=1;endSize=8;exitX=0;exitY=0.95;" edge="1" parent="1" source="tHabayqNRyYTSDUrWJtf-131" target="tHabayqNRyYTSDUrWJtf-5">
          <mxGeometry relative="1" as="geometry">
            <mxPoint x="157" y="956" as="targetPoint" />
          </mxGeometry>
        </mxCell>
        <mxCell id="tHabayqNRyYTSDUrWJtf-134" value="查询订单数据" style="html=1;verticalAlign=bottom;endArrow=block;entryX=0;entryY=0;" edge="1" parent="1" target="tHabayqNRyYTSDUrWJtf-131" source="tHabayqNRyYTSDUrWJtf-5">
          <mxGeometry relative="1" as="geometry">
            <mxPoint x="157.99999999999977" y="909" as="sourcePoint" />
          </mxGeometry>
        </mxCell>
        <mxCell id="tHabayqNRyYTSDUrWJtf-141" value="mysql" style="shape=umlLifeline;perimeter=lifelinePerimeter;whiteSpace=wrap;html=1;container=1;collapsible=0;recursiveResize=0;outlineConnect=0;fillColor=#b1ddf0;strokeColor=#10739e;" vertex="1" parent="1">
          <mxGeometry x="1194" y="474" width="70" height="417" as="geometry" />
        </mxCell>
        <mxCell id="tHabayqNRyYTSDUrWJtf-151" value="" style="html=1;points=[];perimeter=orthogonalPerimeter;fillColor=#b1ddf0;strokeColor=#10739e;" vertex="1" parent="tHabayqNRyYTSDUrWJtf-141">
          <mxGeometry x="30" y="332" width="10" height="49" as="geometry" />
        </mxCell>
        <mxCell id="tHabayqNRyYTSDUrWJtf-148" value="" style="html=1;points=[];perimeter=orthogonalPerimeter;fillColor=#b1ddf0;strokeColor=#10739e;" vertex="1" parent="1">
          <mxGeometry x="1090" y="760" width="10" height="27.5" as="geometry" />
        </mxCell>
        <mxCell id="tHabayqNRyYTSDUrWJtf-149" value="返回用户信息" style="html=1;verticalAlign=bottom;endArrow=open;dashed=1;endSize=8;exitX=0;exitY=0.95;" edge="1" parent="1" source="tHabayqNRyYTSDUrWJtf-148">
          <mxGeometry relative="1" as="geometry">
            <mxPoint x="949" y="786.5" as="targetPoint" />
          </mxGeometry>
        </mxCell>
        <mxCell id="tHabayqNRyYTSDUrWJtf-150" value="查询用户信息" style="html=1;verticalAlign=bottom;endArrow=block;entryX=0;entryY=0;" edge="1" parent="1">
          <mxGeometry relative="1" as="geometry">
            <mxPoint x="953.0000000000002" y="760.5" as="sourcePoint" />
            <mxPoint x="1090" y="760" as="targetPoint" />
          </mxGeometry>
        </mxCell>
        <mxCell id="tHabayqNRyYTSDUrWJtf-152" value="" style="html=1;points=[];perimeter=orthogonalPerimeter;fillColor=#b1ddf0;strokeColor=#10739e;" vertex="1" parent="1">
          <mxGeometry x="934" y="758" width="10" height="108" as="geometry" />
        </mxCell>
        <mxCell id="tHabayqNRyYTSDUrWJtf-153" value="查询订单详情页面" style="html=1;verticalAlign=bottom;endArrow=block;entryX=0;entryY=0;" edge="1" parent="1" target="tHabayqNRyYTSDUrWJtf-152">
          <mxGeometry relative="1" as="geometry">
            <mxPoint x="785" y="758" as="sourcePoint" />
          </mxGeometry>
        </mxCell>
        <mxCell id="tHabayqNRyYTSDUrWJtf-154" value="查询订单数据" style="html=1;verticalAlign=bottom;endArrow=open;dashed=1;endSize=8;exitX=0;exitY=0.95;entryX=1.2;entryY=0.969;entryDx=0;entryDy=0;entryPerimeter=0;" edge="1" parent="1" source="tHabayqNRyYTSDUrWJtf-152">
          <mxGeometry relative="1" as="geometry">
            <mxPoint x="781" y="858.9679999999998" as="targetPoint" />
          </mxGeometry>
        </mxCell>
        <mxCell id="tHabayqNRyYTSDUrWJtf-155" value="返回订单数据" style="html=1;verticalAlign=bottom;endArrow=open;dashed=1;endSize=8;exitX=0;exitY=0.95;" edge="1" parent="1" source="tHabayqNRyYTSDUrWJtf-151">
          <mxGeometry relative="1" as="geometry">
            <mxPoint x="950" y="852" as="targetPoint" />
          </mxGeometry>
        </mxCell>
        <mxCell id="tHabayqNRyYTSDUrWJtf-156" value="查询订单数据" style="html=1;verticalAlign=bottom;endArrow=block;entryX=0;entryY=0;" edge="1" parent="1" target="tHabayqNRyYTSDUrWJtf-151">
          <mxGeometry relative="1" as="geometry">
            <mxPoint x="950" y="806" as="sourcePoint" />
          </mxGeometry>
        </mxCell>
      </root>
    </mxGraphModel>
  </diagram>
</mxfile>
